<?xml version="1.0" encoding="utf-8"?>
<!-- Generator: Adobe Illustrator 25.2.2, SVG Export Plug-In . SVG Version: 6.00 Build 0)  -->
<svg version="1.1" id="Layer_1" xmlns="http://www.w3.org/2000/svg" xmlns:xlink="http://www.w3.org/1999/xlink" x="0px" y="0px"
	 viewBox="0 0 1920 1080" style="enable-background:new 0 0 1920 1080;" xml:space="preserve">
<style type="text/css">
	.st0{fill:none;}
</style>
<symbol  id="RetroRecords" viewBox="-349.59 -44.27 699.17 88.54">
	<path d="M-323.8,43.06c4.35,0,8.69,0.04,13.04-0.01c8.32-0.1,16.34-1.43,19.57-11.16c3.26-9.83,5.24-22.24-2.85-28.28
		c-13.55-10.12-6.01-17.45-0.34-26.17c1.66-2.55,3.21-5.18,5-7.61c5.09-6.91,4.72-10.57-4.57-11.41
		c-10.88-0.98-17.84,3.69-22.44,13.98c-1.47,3.29-3.16,8.27-6.89,8.11c-4.36-0.18-4.53-5.34-4.71-9.11
		c-0.41-8.44-3.98-12.82-12.23-12.47c-9.57,0.41-9.35,7.56-9.33,14.79c0.03,16.31-0.11,32.61,0.02,48.92
		c0.16,20.12,0.25,20.12,19.21,20.49c2.17,0.04,4.35,0.01,6.52,0.01C-323.8,43.11-323.8,43.09-323.8,43.06z"/>
	<path d="M-60.4-12.39c0.04-18.87-12.07-31.65-30.12-31.76c-17.67-0.11-30.02,12.88-30.18,31.75
		c-0.16,18.35,12.65,31.89,30.18,31.89C-72.85,19.5-60.44,6.37-60.4-12.39z"/>
	<path d="M-217.77,3.16c-1.91-14.77-15.84-13.32-23.66-20.12c-2.61-2.27-7.67-3.77-6.35-7.68c1.5-4.43,6.01-2.35,9.4-1.05
		c5.92,2.28,10.26-0.95,11.6-6.28c1.37-5.46-4.17-7.46-7.77-9.39c-12.01-6.43-28.76-1.82-36.73,9.73
		c-7.43,10.75-6.56,30.68,1.77,40.87c8.73,10.67,25.51,13.67,37.39,6c5.37-3.47,9.96-8.32,14.9-12.54L-217.77,3.16z"/>
	<path d="M-45.54,1.88c0,5.43-0.52,10.94,0.12,16.28c0.97,7.98-4.34,19.09,4.51,23.21c9.11,4.24,20.23,3.61,29.78-0.36
		C2.76,35.25,5.11,12.66-8.88,5.36c-15.99-8.34-11.7-14.88-3.7-25.18c4.35-5.61,13.35-15.9,10.08-17.84
		c-9.47-5.59-10.6,8.43-16.2,13.11c-0.54,0.46-0.78,1.32-1.27,1.88c-4.71,5.42-6.86,17.37-14.24,15.09
		c-7.54-2.33-2.49-13.45-3.83-20.55c-0.64-3.42,1.02-9.07-3.68-9.22c-5.2-0.16-3.53,5.67-3.64,8.97C-45.7-18.3-45.48-8.2-45.48,1.88
		C-45.5,1.88-45.52,1.88-45.54,1.88z M-37.91,17.08C-38.06,11.54-36.84,4.53-26.37,5c10.12,0.45,17.92,7.46,17.5,16.45
		c-0.4,8.62-9.14,15.56-18.83,15.21C-38.53,36.28-37.75,27.92-37.91,17.08z"/>
	<path d="M296.21,0.98c0-5.39,0.01-10.79,0-16.18c-0.04-21.46-0.2-20.86-19.76-26.8c-11.47-3.48-20.09,0.02-26.54,9.33
		c-7.99,11.54-7.51,24.98-2.26,37.32c4.07,9.57,12.55,16.74,22.64,13.87c14.84-4.23,21.56-1.09,19.11,16.39
		c-0.42,2.99,0.01,6.84,3.37,7.3c4.82,0.66,3.2-4.18,3.26-6.55c0.29-11.55,0.13-23.11,0.13-34.67
		C296.18,0.98,296.2,0.98,296.21,0.98z M289.09-11.21c-0.18,15.12-7.07,24.06-18.25,23.67c-11.27-0.39-18.2-9.46-18.35-24.01
		c-0.16-15.15,8-25.56,19.7-25.13C282.31-36.31,289.26-25.84,289.09-11.21z"/>
	<path d="M-217.23,2.7c10.82,5.82,15.05,17.99,22.6,26.96c1.89,2.25,6.21,5.6,6.36,4.74c1.49-8.59,4.02-15.1,12.97-18.03
		c2.44-0.8,0.17-8.03-2.24-9.95c-11.26-8.93-8.64-21.65-8.82-33.57c-0.11-7.58-0.99-13.93-10.08-13.9
		c-9.13,0.02-9.32,6.56-10.12,13.97c-1.18,10.97,6,25.98-11.2,30.23L-217.23,2.7z"/>
	<path d="M-167.6-10.64c1.07,5.98-3.55,16.02,5.27,22.85c9.87,7.65,21.69,2.8,32.4,5.76c4.44,1.23,5.6-14.62-0.66-16.26
		c-18.55-4.86-17.52-18.87-17.2-33.64c0.15-6.95-4.18-9.1-9.86-9.07c-5.77,0.03-9.69,2.65-9.91,9.32
		C-167.76-25.54-167.6-19.4-167.6-10.64z"/>
	<path d="M41.17,19.07c5.14,0.13,10.01-0.55,14.55-3.6c4.34-2.92,9.34-5.47,9.93-11.45c0.69-7-5.48-8.26-9.71-10.7
		c-7-4.04-14.29-7.52-21.25-11.63c-3.64-2.15-8.71-4.31-6.98-10.12c1.36-4.55,5.55-6.87,9.96-7.93c6.8-1.62,12.85,0.11,18.31,4.71
		c2.12,1.79,5.06,5.13,7.24,1.73c2.93-4.58-1.88-6.53-4.54-8.36c-11.2-7.73-24.7-7.38-34.59,0.53C14.15-29.8,9.41-14.38,13.32-2.67
		C17.8,10.74,28.19,18.86,41.17,19.07z M55.93,5.3c-1.86,1.6-3.77,4.25-6.26,5.21c-9.88,3.8-18.8,1.85-25.01-7.64
		c-3.11-4.75-8.41-10.61-3.19-16.46c4.41-4.95,9.29,0.62,13.65,2.65c5.3,2.47,10.44,5.34,15.52,8.3C53.19-1.15,55.23,1.1,55.93,5.3z
		"/>
	<path d="M195.8-12.22c0-17.63-13.68-31.98-30.38-31.87c-17.19,0.11-29.26,13.79-28.85,32.69c0.39,18.04,11.85,30.28,28.54,30.49
		C182.17,19.3,195.8,5.39,195.8-12.22z M164.77,11.91c-12.15-0.57-20.99-10.8-20.92-24.2c0.08-14.69,9.89-25.28,22.78-24.58
		c11.41,0.62,21.56,12.03,21.61,24.28C188.3,0.79,177.08,12.5,164.77,11.91z"/>
	<path d="M335.37,18.92c-0.72,0.08,2.27,0.2,4.97-0.69c1.78-0.59,4.51-2.73,4.43-4c-0.2-3-3.1-2.36-5.19-2.21
		c-2.86,0.21-5.74,0.99-8.57,0.79c-4.47-0.32-8.74-1.75-9.9-7.23c-1.19-5.59,2.28-8.45,6.35-10.49c3.9-1.96,7.94-3.61,11.93-5.38
		c6.6-2.92,10.58-7.65,10.18-15.85c-0.44-9.13-5.75-14.26-12.99-16.54c-6.9-2.17-14.24-2.46-20.93,1.91c-1.84,1.2-3.71,2.5-2.9,5.04
		c0.19,0.61,2.56,0.73,3.87,0.56c2.13-0.28,4.19-1.22,6.32-1.46c7.55-0.86,15.19-0.6,17.47,9.04c2.26,9.58-6.03,10.77-11.44,13.95
		c-1.25,0.74-2.64,1.24-4,1.75c-7.94,2.99-15.46,7.13-13.24,17.85C313.97,16.89,322.28,19.61,335.37,18.92z"/>
	<path d="M109.95,19.13c1.22-0.14,4.22,0.01,6.85-0.97c1.67-0.62,3.83-2.84,3.95-4.49c0.22-3.21-2.58-2.44-4.55-2.32
		c-2.87,0.18-5.75,0.71-8.59,0.49C95.8,10.91,89.36,3.22,87.72-8.61c-1.68-12.12,3.92-20.83,14.02-25.87
		c3.09-1.54,7.01-1.03,10.4-2.02c2.8-0.82,8.04,4.22,8.03-2.34c0-3.24-5.18-4.41-8.84-4.82c-16.97-1.89-30.62,11.11-31.26,29.85
		C79.4,5.66,90.7,18.84,109.95,19.13z"/>
	<path d="M231.9,18.46c1.28-0.39,2.98-0.4,3.71-1.31c0.56-0.7,0.26-3.5-0.25-3.71c-19.73-8.07-16.64-26.33-16.97-43.11
		c-0.06-2.92,0.08-7.4-2.87-7.63c-5.51-0.44-3.92,5.11-4.06,8.37c-0.35,7.7-0.17,15.43-0.15,23.15
		C211.37,17.24,211.39,17.24,231.9,18.46z"/>
</symbol>
<line class="st0" x1="1170" y1="798" x2="1172" y2="798"/>
<use xlink:href="#RetroRecords"  width="699.17" height="88.54" x="-349.59" y="-44.27" transform="matrix(1 0 0 -1 723.9492 651.9767)" style="overflow:visible;"/>
</svg>
